<?xml version="1.0" encoding="UTF-8"?>
<!DOCTYPE svg PUBLIC "-//W3C//DTD SVG 1.1//EN" "http://www.w3.org/Graphics/SVG/1.1/DTD/svg11.dtd">
<svg xmlns="http://www.w3.org/2000/svg" version="1.1" width="238px" height="199px" style="shape-rendering:geometricPrecision; text-rendering:geometricPrecision; image-rendering:optimizeQuality; clip-rule:evenodd" xmlns:xlink="http://www.w3.org/1999/xlink">
<g><path style="opacity:1" fill="#C0C0C0" d="M 215.5,55.5 C 215.41,58.1522 216.076,60.4855 217.5,62.5C 219.011,65.5443 219.678,68.8776 219.5,72.5C 220.723,84.2915 221.723,95.9582 222.5,107.5C 227.806,114.615 232.473,122.115 236.5,130C 236.333,130.833 236.167,131.667 236,132.5C 232.478,135.266 229.145,138.266 226,141.5C 224.694,146.431 222.36,150.764 219,154.5C 218.322,156.598 218.489,158.598 219.5,160.5C 219.693,164.566 219.36,168.566 218.5,172.5C 216.478,177.363 213.145,181.197 208.5,184C 199.226,185.22 189.893,185.887 180.5,186C 176.95,188.727 173.617,191.561 170.5,194.5C 153.167,194.5 135.833,194.5 118.5,194.5C 118.818,189.968 118.485,185.634 117.5,181.5C 110.313,181.175 103.313,181.509 96.5,182.5C 93.7029,184.795 91.0362,187.295 88.5,190C 77.1667,190.333 65.8333,190.667 54.5,191C 51.0902,196.697 46.0902,198.697 39.5,197C 31.5774,190.304 31.5774,183.637 39.5,177C 45.9994,175.421 50.9994,177.421 54.5,183C 64.5,183.667 74.5,183.667 84.5,183C 87.3714,180.297 90.0381,177.464 92.5,174.5C 103.167,174.5 113.833,174.5 124.5,174.5C 124.182,179.032 124.515,183.366 125.5,187.5C 139.504,187.667 153.504,187.5 167.5,187C 170.674,182.817 174.674,179.817 179.5,178C 187.833,177.667 196.167,177.333 204.5,177C 210.667,173.527 213.167,168.36 212,161.5C 211.617,160.944 211.117,160.611 210.5,160.5C 209.735,157.904 209.401,155.237 209.5,152.5C 214.284,149.891 216.784,145.891 217,140.5C 220.154,136.346 223.654,132.513 227.5,129C 223.711,122.591 219.544,116.424 215,110.5C 214.83,101.657 214.33,92.9903 213.5,84.5C 213.376,79.9515 212.709,75.6181 211.5,71.5C 211.5,71.1667 211.5,70.8333 211.5,70.5C 211.59,67.8478 210.924,65.5145 209.5,63.5C 209.768,61.901 209.434,60.5676 208.5,59.5C 208.065,56.8427 207.065,54.5093 205.5,52.5C 200.743,39.2428 191.743,30.0761 178.5,25C 173.351,23.084 168.017,22.084 162.5,22C 145.167,21.6667 127.833,21.3333 110.5,21C 107.167,17.6667 103.833,14.3333 100.5,11C 91.4815,10.168 82.4815,10.3347 73.5,11.5C 70.3492,15.1514 67.0158,18.6514 63.5,22C 56.8085,22.1691 50.1419,22.6691 43.5,23.5C 42.4787,25.188 41.1454,26.5213 39.5,27.5C 36.2356,28.3242 32.9023,28.6576 29.5,28.5C 28.8333,28.1667 28.1667,27.8333 27.5,27.5C 24.1788,23.8647 22.8455,19.5314 23.5,14.5C 24.1894,11.8106 25.856,10.1439 28.5,9.5C 31.4299,8.70105 34.4299,8.36772 37.5,8.5C 40.0892,9.41938 42.0892,11.086 43.5,13.5C 49.1375,14.6632 54.8041,14.8299 60.5,14C 64.0158,10.6514 67.3492,7.15138 70.5,3.5C 81.8333,2.16667 93.1667,2.16667 104.5,3.5C 107.317,6.81785 110.317,9.98451 113.5,13C 130.833,13.3333 148.167,13.6667 165.5,14C 184.014,16.1682 198.514,25.0015 209,40.5C 211.729,45.2883 213.896,50.2883 215.5,55.5 Z"/></g>
<g><path style="opacity:1" fill="#ff8c00" d="M 31.5,15.5 C 36.1585,15.0146 37.4919,16.848 35.5,21C 34.2068,21.49 32.8734,21.6567 31.5,21.5C 31.5,19.5 31.5,17.5 31.5,15.5 Z"/></g>
<g><path style="opacity:1" fill="#C0C0C0" d="M 79.5,46.5 C 79.3424,43.0977 79.6758,39.7644 80.5,36.5C 84.4516,31.3711 89.4516,30.2044 95.5,33C 97.019,34.3513 98.3523,35.8513 99.5,37.5C 118.491,38.333 137.491,38.833 156.5,39C 159.167,41.3333 159.167,43.6667 156.5,46C 137.5,46.3333 118.5,46.6667 99.5,47C 95.3347,52.3442 90.0013,53.8442 83.5,51.5C 82.1128,49.79 80.7794,48.1233 79.5,46.5 Z"/></g>
<g><path style="opacity:1" fill="#ff8c00" d="M 87.5,39.5 C 91.909,38.899 93.2424,40.5657 91.5,44.5C 86.7316,45.8893 85.3983,44.2226 87.5,39.5 Z"/></g>
<g><path style="opacity:1" fill="#C0C0C0" d="M 27.5,55.5 C 40.1237,57.4809 53.1237,58.1476 66.5,57.5C 69.8333,60.5 73.1667,63.5 76.5,66.5C 76.6107,67.1174 76.944,67.6174 77.5,68C 86.3433,68.8236 95.0099,68.6569 103.5,67.5C 105.963,65.5389 108.297,63.3722 110.5,61C 125.833,60.3333 141.167,60.3333 156.5,61C 158.515,62.5553 158.848,64.3886 157.5,66.5C 143.211,67.3168 128.878,67.8168 114.5,68C 108.727,75.9764 100.894,78.8097 91,76.5C 85.8333,76.3333 80.6667,76.1667 75.5,76C 71.8333,72.3333 68.1667,68.6667 64.5,65C 52.1532,64.1674 39.8198,64.3341 27.5,65.5C 23.9222,70.0468 19.2555,71.5468 13.5,70C 5.51676,63.4294 5.51676,56.7628 13.5,50C 19.9064,48.0189 24.5731,49.8522 27.5,55.5 Z"/></g>
<g><path style="opacity:1" fill="#ff8c00" d="M 16.5,57.5 C 20.6759,56.8307 22.0093,58.3307 20.5,62C 18.8659,62.4935 17.1992,62.6602 15.5,62.5C 15.366,60.7085 15.6993,59.0418 16.5,57.5 Z"/></g>
<g><path style="opacity:1" fill="#C0C0C0" d="M 49.5,80.5 C 84.8177,82.4935 120.484,83.1602 156.5,82.5C 159.326,85.0485 158.993,87.2152 155.5,89C 120.5,89.3333 85.5,89.6667 50.5,90C 49.1811,93.155 46.8477,94.9884 43.5,95.5C 40.4299,95.6323 37.4299,95.299 34.5,94.5C 28.289,89.048 27.9557,83.2147 33.5,77C 40.0141,73.135 45.3475,74.3017 49.5,80.5 Z"/></g>
<g><path style="opacity:1" fill="#ff8c00" d="M 38.5,82.5 C 43.1585,82.0146 44.4919,83.848 42.5,88C 37.7282,88.8104 36.3948,86.9771 38.5,82.5 Z"/></g>
<g><path style="opacity:1" fill="#C0C0C0" d="M 156.5,104.5 C 159.247,107.196 158.914,109.529 155.5,111.5C 120.832,111.333 86.1651,111.5 51.5,112C 48.6286,114.703 45.9619,117.536 43.5,120.5C 35.4271,119.868 27.7605,120.535 20.5,122.5C 12.5763,130.032 6.07634,129.032 1,119.5C 0.333333,116.833 0.333333,114.167 1,111.5C 1.38258,110.944 1.88258,110.611 2.5,110.5C 4.19578,110.315 5.52912,109.481 6.5,108C 9.81677,107.502 13.1501,107.335 16.5,107.5C 18.1454,108.479 19.4787,109.812 20.5,111.5C 27.1335,112.497 33.8002,112.83 40.5,112.5C 43.8991,110.612 46.8991,108.112 49.5,105C 85.1651,104.5 120.832,104.333 156.5,104.5 Z"/></g>
<g><path style="opacity:1" fill="#ff8c00" d="M 9.5,113.5 C 13.35,113.701 14.35,115.534 12.5,119C 11.2068,119.49 9.87344,119.657 8.5,119.5C 8.32526,117.379 8.65859,115.379 9.5,113.5 Z"/></g>
<g><path style="opacity:1" fill="#C0C0C0" d="M 156.5,132.5 C 134.141,131.844 112.141,132.511 90.5,134.5C 84.4071,141.14 78.2404,141.14 72,134.5C 68.4023,123.096 72.569,117.93 84.5,119C 87.0758,119.782 89.0758,121.282 90.5,123.5C 112.159,124.333 133.826,124.833 155.5,125C 158.932,127.203 159.266,129.703 156.5,132.5 Z"/></g>
<g><path style="opacity:1" fill="#ff8c00" d="M 79.5,125.5 C 83.35,125.701 84.35,127.534 82.5,131C 81.2068,131.49 79.8734,131.657 78.5,131.5C 78.3253,129.379 78.6586,127.379 79.5,125.5 Z"/></g>
<g><path style="opacity:1" fill="#C0C0C0" d="M 156.5,147.5 C 159.247,150.196 158.914,152.529 155.5,154.5C 125.148,153.841 95.1481,154.508 65.5,156.5C 62.9974,158.833 60.3307,160.999 57.5,163C 49.8333,163.333 42.1667,163.667 34.5,164C 31.1692,169.002 26.5026,170.669 20.5,169C 14.4578,165.252 12.9578,160.085 16,153.5C 17.0391,152.29 18.2058,151.29 19.5,150.5C 22.7644,149.676 26.0977,149.342 29.5,149.5C 32.0171,150.893 33.6837,152.893 34.5,155.5C 41.6866,155.825 48.6866,155.491 55.5,154.5C 58.5628,152.949 61.2295,150.782 63.5,148C 94.4982,147.5 125.498,147.333 156.5,147.5 Z"/></g>
<g><path style="opacity:1" fill="#ff8c00" d="M 26.5,161.5 C 26.5,160.167 26.5,158.833 26.5,157.5C 25.5,157.5 24.5,157.5 23.5,157.5C 23.5,158.833 23.5,160.167 23.5,161.5C 22.5489,160.081 22.2155,158.415 22.5,156.5C 24.4672,156.261 26.3005,156.594 28,157.5C 28.7726,159.352 28.2726,160.686 26.5,161.5 Z"/></g>
<g><path style="opacity:1" fill="#ff8c00" d="M 26.5,161.5 C 25.5,161.5 24.5,161.5 23.5,161.5C 23.5,160.167 23.5,158.833 23.5,157.5C 24.5,157.5 25.5,157.5 26.5,157.5C 26.5,158.833 26.5,160.167 26.5,161.5 Z"/></g>
<g><path style="opacity:1" fill="#ff8c00" d="M 45.5,189.5 C 44.209,189.737 43.209,189.404 42.5,188.5C 42.5,187.5 42.5,186.5 42.5,185.5C 43.5,185.5 44.5,185.5 45.5,185.5C 45.5,186.833 45.5,188.167 45.5,189.5 Z"/></g>
<g><path style="opacity:1" fill="#ff8c00" d="M 45.5,189.5 C 45.5,188.167 45.5,186.833 45.5,185.5C 44.5,185.5 43.5,185.5 42.5,185.5C 42.5,186.5 42.5,187.5 42.5,188.5C 41.5655,187.432 41.2322,186.099 41.5,184.5C 43.4672,184.261 45.3005,184.594 47,185.5C 47.7726,187.352 47.2726,188.686 45.5,189.5 Z"/></g>
</svg>
